<svg class="logo" id="logo" xmlns="http://www.w3.org/2000/svg" viewBox="0 0 49.08 18.08"><defs><style>.cls-1{fill:#ea0029;}</style></defs><path class="cls-1" d="M5.5,14.27C5.39,13.34,5,12.91,4,12.35c-1.65-.95-1.41-2.11-1.41-2.11,0-.71.59-1.19,1.64-2.09a3.16,3.16,0,0,0,.75-1l.23-.61a3.32,3.32,0,0,0,.11-.77V.92S5.24,1,5.24,1A5.2,5.2,0,0,1,5,2.4c-.39,1.41-2.05,2.51-2.48,3A4.5,4.5,0,0,0,1.36,9.33a3.84,3.84,0,0,0,1.46,2.6,23.12,23.12,0,0,1,2,1.21c.23.25.4.9.29.65s-.48-.91-2-1.38S1.22,10.69.88,9.47A9.59,9.59,0,0,1,.65,6.71l-.07.07S.49,11.22.49,11.67A4.78,4.78,0,0,0,1,13.76c1,1.82,1.75,1.55,3.1,2a1.63,1.63,0,0,1,1.3,1.52A13.65,13.65,0,0,1,5.45,19l.14-.13v-3a10.31,10.31,0,0,0-.09-1.6" transform="translate(-0.49 -0.92)"></path><polygon points="9.59 5.78 5.91 5.78 5.91 1.21 5.58 1.53 5.58 5.78 2.22 5.78 1.9 6.11 5.58 6.11 5.58 17.1 5.91 16.8 5.91 6.11 9.28 6.11 9.59 5.78"></polygon><path d="M8.15,17.64a.44.44,0,1,1,.42-.44.42.42,0,0,1-.42.44m0,.09a.53.53,0,0,0,.52-.53.53.53,0,0,0-1,0,.53.53,0,0,0,.53.53M8,17h.12c.1,0,.14,0,.14.09s-.05.09-.16.09H8Zm0,.26h.09l.16.27h.12l-.17-.27a.16.16,0,0,0,.15-.17c0-.11-.07-.17-.21-.17H7.94v.61H8Z" transform="translate(-0.49 -0.92)"></path><path d="M14.66,17.73l.09-3.49h.33l.69,3,.7-3h.33l.08,3.49h-.27L16.54,15l-.67,2.78h-.21L15,15l-.06,2.78Z" transform="translate(-0.49 -0.92)"></path><path d="M18.13,17.77a.67.67,0,0,1-.39-.1.59.59,0,0,1-.22-.3,2.24,2.24,0,0,1-.07-.58v-.63a1.69,1.69,0,0,1,.08-.57.54.54,0,0,1,.22-.3.74.74,0,0,1,.38-.09.66.66,0,0,1,.4.11.6.6,0,0,1,.19.34,2.29,2.29,0,0,1,.06.58v.22h-1v.44a1.87,1.87,0,0,0,0,.38.43.43,0,0,0,.12.2.39.39,0,0,0,.38,0,.24.24,0,0,0,.12-.14.78.78,0,0,0,0-.3v-.17h.3V17a1,1,0,0,1-.14.54A.55.55,0,0,1,18.13,17.77Zm-.36-1.5h.7v-.2a1.58,1.58,0,0,0,0-.34.34.34,0,0,0-.09-.22.29.29,0,0,0-.22-.07.41.41,0,0,0-.21.05.36.36,0,0,0-.12.2,2.22,2.22,0,0,0,0,.41Z" transform="translate(-0.49 -0.92)"></path><path d="M19.9,17.76a.5.5,0,0,1-.28-.07.41.41,0,0,1-.14-.2,1.14,1.14,0,0,1,0-.28V15.45h-.31v-.21h.31v-.77h.31v.77h.41v.21h-.41v1.73a.74.74,0,0,0,0,.26s.09.07.18.07h.09l.09,0v.24l-.13,0Z" transform="translate(-0.49 -0.92)"></path><path d="M21.23,17.77a.68.68,0,0,1-.4-.11.65.65,0,0,1-.2-.32,1.88,1.88,0,0,1-.06-.51v-.69a1.88,1.88,0,0,1,.06-.51.61.61,0,0,1,.2-.32.68.68,0,0,1,.4-.11.66.66,0,0,1,.4.11.57.57,0,0,1,.21.32,1.88,1.88,0,0,1,.06.51v.69a1.88,1.88,0,0,1-.06.51.6.6,0,0,1-.21.32A.66.66,0,0,1,21.23,17.77Zm0-.24a.3.3,0,0,0,.24-.09.4.4,0,0,0,.09-.24,3.53,3.53,0,0,0,0-.36v-.72a3.49,3.49,0,0,0,0-.35.38.38,0,0,0-.09-.24.36.36,0,0,0-.48,0,.38.38,0,0,0-.09.24c0,.1,0,.22,0,.35v.72c0,.14,0,.26,0,.36a.4.4,0,0,0,.09.24A.3.3,0,0,0,21.23,17.53Z" transform="translate(-0.49 -0.92)"></path><path d="M23,17.77a.48.48,0,0,1-.46-.24,1.65,1.65,0,0,1-.14-.81v-.46a2.38,2.38,0,0,1,.05-.56.75.75,0,0,1,.17-.37A.47.47,0,0,1,23,15.2a.44.44,0,0,1,.26.07.65.65,0,0,1,.18.15V14.24h.32v3.49h-.32v-.18a.9.9,0,0,1-.18.15A.48.48,0,0,1,23,17.77Zm.06-.25a.46.46,0,0,0,.2-.05.61.61,0,0,0,.16-.12V15.62a.74.74,0,0,0-.16-.12.36.36,0,0,0-.21-.05.25.25,0,0,0-.27.18,1.47,1.47,0,0,0-.07.53v.59a2.42,2.42,0,0,0,0,.42.52.52,0,0,0,.1.26A.28.28,0,0,0,23.05,17.52Z" transform="translate(-0.49 -0.92)"></path><path d="M24.35,14.89v-.42h.32v.42Zm0,2.84V15.24h.32v2.49Z" transform="translate(-0.49 -0.92)"></path><path d="M25.87,17.77a.63.63,0,0,1-.48-.2.85.85,0,0,1-.2-.51l.26-.08a.83.83,0,0,0,.14.42.35.35,0,0,0,.3.13.33.33,0,0,0,.25-.09.36.36,0,0,0,.09-.26.59.59,0,0,0-.07-.25,1.28,1.28,0,0,0-.23-.25l-.34-.3a1.33,1.33,0,0,1-.26-.28.71.71,0,0,1-.08-.34.56.56,0,0,1,.07-.3.43.43,0,0,1,.21-.19.62.62,0,0,1,.31-.07.52.52,0,0,1,.43.18.8.8,0,0,1,.16.47l-.22.08a1.59,1.59,0,0,0-.05-.28.34.34,0,0,0-.12-.16.29.29,0,0,0-.19-.05.31.31,0,0,0-.23.08.26.26,0,0,0-.08.22.45.45,0,0,0,0,.2.8.8,0,0,0,.16.19l.35.31a1.89,1.89,0,0,1,.2.2.91.91,0,0,1,.15.23.67.67,0,0,1,.06.3.53.53,0,0,1-.08.32.5.5,0,0,1-.22.21A.81.81,0,0,1,25.87,17.77Z" transform="translate(-0.49 -0.92)"></path><path d="M27.55,17.76a.48.48,0,0,1-.27-.07.41.41,0,0,1-.14-.2,1.14,1.14,0,0,1,0-.28V15.45H26.8v-.21h.31v-.77h.31v.77h.41v.21h-.41v1.73a.56.56,0,0,0,0,.26s.09.07.18.07h.09l.09,0v.24l-.13,0Z" transform="translate(-0.49 -0.92)"></path><path d="M28.7,17.77a.47.47,0,0,1-.26-.08.55.55,0,0,1-.17-.2.67.67,0,0,1-.06-.28.77.77,0,0,1,.05-.32.56.56,0,0,1,.17-.24,1.66,1.66,0,0,1,.31-.21l.47-.22V16a1.73,1.73,0,0,0,0-.36.37.37,0,0,0-.09-.19.36.36,0,0,0-.19-.05.34.34,0,0,0-.18,0,.26.26,0,0,0-.12.13.55.55,0,0,0-.05.25V16h-.31a.9.9,0,0,1,.16-.57.67.67,0,0,1,.52-.18.54.54,0,0,1,.47.2,1.12,1.12,0,0,1,.13.62v1.21a1.09,1.09,0,0,0,0,.17v.33h-.28a1.37,1.37,0,0,0,0-.19,1.15,1.15,0,0,1,0-.16.7.7,0,0,1-.19.27A.45.45,0,0,1,28.7,17.77Zm.1-.27a.37.37,0,0,0,.18-.05.69.69,0,0,0,.13-.11.61.61,0,0,0,.1-.14v-.77l-.32.17a1,1,0,0,0-.21.15.33.33,0,0,0-.12.17.46.46,0,0,0,0,.21.39.39,0,0,0,.09.29A.27.27,0,0,0,28.8,17.5Z" transform="translate(-0.49 -0.92)"></path><path d="M31.92,17.77a.89.89,0,0,1-.52-.13.73.73,0,0,1-.26-.39,2.05,2.05,0,0,1-.08-.59V15.3a1.73,1.73,0,0,1,.08-.58.69.69,0,0,1,.26-.38.94.94,0,0,1,.54-.13.91.91,0,0,1,.5.11.64.64,0,0,1,.26.34,1.47,1.47,0,0,1,.09.55v.12h-.31v-.12a1.47,1.47,0,0,0,0-.41.41.41,0,0,0-.16-.25.56.56,0,0,0-.32-.08.58.58,0,0,0-.37.1.45.45,0,0,0-.15.29,1.68,1.68,0,0,0,0,.41V16.7a1.84,1.84,0,0,0,.05.44.49.49,0,0,0,.16.27.54.54,0,0,0,.35.1.49.49,0,0,0,.34-.1.55.55,0,0,0,.16-.28,1.78,1.78,0,0,0,0-.44v-.4H32V16h.82v1.69h-.21l0-.4a.64.64,0,0,1-.21.32A.66.66,0,0,1,31.92,17.77Z" transform="translate(-0.49 -0.92)"></path><path d="M33.34,18.35V18.1a1.27,1.27,0,0,0,.32,0,.24.24,0,0,0,.15-.09.29.29,0,0,0,0-.14.82.82,0,0,0,0-.18l-.06-.23-.51-2.19h.32L34,17.36l.41-2.12h.32l-.6,2.66a.49.49,0,0,1-.12.26.57.57,0,0,1-.24.14,1.13,1.13,0,0,1-.35.05Z" transform="translate(-0.49 -0.92)"></path><path d="M35.52,17.77a.33.33,0,0,1-.21-.07.37.37,0,0,1-.14-.18.79.79,0,0,1,0-.28v-2h.32v1.93a.45.45,0,0,0,.06.27.19.19,0,0,0,.17.08.51.51,0,0,0,.23-.07.91.91,0,0,0,.21-.18v-2h.32v2.49h-.32v-.28a1.18,1.18,0,0,1-.27.23A.68.68,0,0,1,35.52,17.77Zm-.24-3.15v-.38h.33v.38Zm.71,0v-.38h.33v.38Z" transform="translate(-0.49 -0.92)"></path><path d="M37.07,17.73V14.24h.31v3.49Z" transform="translate(-0.49 -0.92)"></path><path d="M38.62,17.77a.65.65,0,0,1-.38-.1.54.54,0,0,1-.22-.3,2.24,2.24,0,0,1-.07-.58v-.63a1.69,1.69,0,0,1,.08-.57.54.54,0,0,1,.22-.3.74.74,0,0,1,.38-.09.66.66,0,0,1,.4.11.6.6,0,0,1,.19.34,2.35,2.35,0,0,1,.05.58v.22h-1v.44a1.87,1.87,0,0,0,0,.38.43.43,0,0,0,.12.2.32.32,0,0,0,.2.06.34.34,0,0,0,.18,0,.24.24,0,0,0,.12-.14.78.78,0,0,0,0-.3v-.17h.3V17a1,1,0,0,1-.14.54A.56.56,0,0,1,38.62,17.77Zm-.35-1.5H39v-.2a1.58,1.58,0,0,0,0-.34.34.34,0,0,0-.09-.22.3.3,0,0,0-.23-.07.39.39,0,0,0-.2.05.31.31,0,0,0-.12.2,2.22,2.22,0,0,0,0,.41Z" transform="translate(-0.49 -0.92)"></path><path d="M39.81,17.73V14.24h.31v2.21L41,15.24h.34l-.63,1,.6,1.53h-.32l-.52-1.35-.3.4v.95Z" transform="translate(-0.49 -0.92)"></path><path d="M42.25,17.77a.65.65,0,0,1-.38-.1.54.54,0,0,1-.22-.3,2.24,2.24,0,0,1-.07-.58v-.63a1.69,1.69,0,0,1,.08-.57.5.5,0,0,1,.22-.3.74.74,0,0,1,.38-.09.66.66,0,0,1,.4.11.6.6,0,0,1,.19.34,2.35,2.35,0,0,1,0,.58v.22h-1v.44a1.87,1.87,0,0,0,0,.38.43.43,0,0,0,.12.2.32.32,0,0,0,.2.06.34.34,0,0,0,.18,0,.24.24,0,0,0,.12-.14.8.8,0,0,0,0-.3v-.17h.31V17a1,1,0,0,1-.14.54A.56.56,0,0,1,42.25,17.77Zm-.35-1.5h.69v-.2a1.67,1.67,0,0,0,0-.34.34.34,0,0,0-.09-.22.3.3,0,0,0-.23-.07.39.39,0,0,0-.2.05.31.31,0,0,0-.12.2,2.22,2.22,0,0,0,0,.41Z" transform="translate(-0.49 -0.92)"></path><path d="M43.33,17.73v-.22l.85-2h-.76v-.24h1.09v.19l-.84,2.06h.83v.24Z" transform="translate(-0.49 -0.92)"></path><path d="M45.6,17.77a.67.67,0,0,1-.39-.1.53.53,0,0,1-.21-.3,1.84,1.84,0,0,1-.08-.58v-.63a1.69,1.69,0,0,1,.08-.57.54.54,0,0,1,.22-.3.74.74,0,0,1,.38-.09.64.64,0,0,1,.4.11.6.6,0,0,1,.19.34,2.29,2.29,0,0,1,.06.58v.22h-1v.44a1.87,1.87,0,0,0,0,.38.43.43,0,0,0,.12.2.39.39,0,0,0,.38,0,.24.24,0,0,0,.12-.14.78.78,0,0,0,0-.3v-.17h.3V17a1,1,0,0,1-.14.54A.55.55,0,0,1,45.6,17.77Zm-.36-1.5h.7v-.2a1.58,1.58,0,0,0,0-.34.34.34,0,0,0-.09-.22.29.29,0,0,0-.22-.07.41.41,0,0,0-.21.05.36.36,0,0,0-.12.2,2.22,2.22,0,0,0,0,.41Z" transform="translate(-0.49 -0.92)"></path><path d="M47.37,17.76a.5.5,0,0,1-.28-.07.41.41,0,0,1-.14-.2,1.14,1.14,0,0,1,0-.28V15.45h-.31v-.21h.31v-.77h.31v.77h.41v.21h-.41v1.73a.74.74,0,0,0,0,.26s.09.07.18.07h.09l.09,0v.24l-.13,0Z" transform="translate(-0.49 -0.92)"></path><path d="M14.55,12v-6h.85l1.32,3.11V6.05h1v6h-.81l-1.33-3.3V12Z" transform="translate(-0.49 -0.92)"></path><path d="M18.83,13.23v-.79l.4,0a.45.45,0,0,0,.23-.11.31.31,0,0,0,.08-.22,1.53,1.53,0,0,0-.05-.3c0-.13-.07-.27-.11-.43l-1-3.6h1.05L20,10.38l.44-2.62h1.06l-1,4.4a1.36,1.36,0,0,1-.29.64,1,1,0,0,1-.49.33,2.32,2.32,0,0,1-.68.1Z" transform="translate(-0.49 -0.92)"></path><path d="M22.21,12V7.76h1.12V12Zm.2-4.71.46-1.47H24l-.91,1.47Z" transform="translate(-0.49 -0.92)"></path><path d="M24.33,12V7.76h1.11v.69a2.31,2.31,0,0,1,.43-.56.73.73,0,0,1,.5-.18h.09l.07,0V8.85l-.18-.06-.21,0a.7.7,0,0,0-.38.11,1.16,1.16,0,0,0-.32.31V12Z" transform="translate(-0.49 -0.92)"></path><path d="M28.57,12.1a1.59,1.59,0,0,1-.79-.18,1.11,1.11,0,0,1-.48-.5,1.86,1.86,0,0,1-.16-.81V9.18a1.82,1.82,0,0,1,.16-.82,1.13,1.13,0,0,1,.49-.5,1.6,1.6,0,0,1,.78-.17,1.62,1.62,0,0,1,.79.17,1.1,1.1,0,0,1,.45.52,2.25,2.25,0,0,1,.14.83V10H28.24v.83a.87.87,0,0,0,0,.3.26.26,0,0,0,.3.21.34.34,0,0,0,.18,0,.31.31,0,0,0,.11-.16.67.67,0,0,0,0-.27v-.4h1v.35a1.34,1.34,0,0,1-.35,1A1.46,1.46,0,0,1,28.57,12.1Zm-.33-2.68h.67V9a.87.87,0,0,0,0-.3.24.24,0,0,0-.11-.16.39.39,0,0,0-.2,0,.35.35,0,0,0-.18,0,.39.39,0,0,0-.1.18,1.22,1.22,0,0,0,0,.37Z" transform="translate(-0.49 -0.92)"></path><path d="M32.13,13.47a2.69,2.69,0,0,1-.8-.1,1.16,1.16,0,0,1-.54-.28.65.65,0,0,1-.19-.48.8.8,0,0,1,.08-.36.92.92,0,0,1,.24-.28,1.38,1.38,0,0,1,.33-.2.86.86,0,0,1-.4-.23.57.57,0,0,1-.15-.4.72.72,0,0,1,.13-.44,1.94,1.94,0,0,1,.34-.38,1.29,1.29,0,0,1-.33-.46,1.9,1.9,0,0,1-.11-.68,1.8,1.8,0,0,1,.17-.81,1.12,1.12,0,0,1,.5-.51,1.62,1.62,0,0,1,.79-.17,1.68,1.68,0,0,1,.58.09,1,1,0,0,1,.4.27.94.94,0,0,1,.22-.23,1.06,1.06,0,0,1,.31-.21l.15-.07.27.56-.21.07-.25.11-.22.11a1.79,1.79,0,0,1,.12.37,2.15,2.15,0,0,1,0,.43,1.87,1.87,0,0,1-.15.78,1.16,1.16,0,0,1-.47.51,1.54,1.54,0,0,1-.79.18,2,2,0,0,1-.35,0l-.31-.07a.57.57,0,0,0-.08.13.32.32,0,0,0,0,.14.17.17,0,0,0,.08.14.83.83,0,0,0,.31.07l1,.11a1.22,1.22,0,0,1,.8.35,1.08,1.08,0,0,1,.25.75,1.22,1.22,0,0,1-.18.67,1,1,0,0,1-.56.41A3.1,3.1,0,0,1,32.13,13.47Zm.14-.82a2,2,0,0,0,.62-.07.29.29,0,0,0,.21-.29.24.24,0,0,0-.06-.17.35.35,0,0,0-.19-.12,1.59,1.59,0,0,0-.38-.06l-.76-.08a.86.86,0,0,0-.14.13.42.42,0,0,0-.09.14.29.29,0,0,0,0,.16.28.28,0,0,0,.19.27A1.6,1.6,0,0,0,32.27,12.65ZM32.19,10a.36.36,0,0,0,.19,0,.26.26,0,0,0,.11-.14.83.83,0,0,0,.06-.25c0-.11,0-.23,0-.37s0-.27,0-.37a.83.83,0,0,0-.06-.25.23.23,0,0,0-.11-.14.36.36,0,0,0-.19-.05.41.41,0,0,0-.19.05.23.23,0,0,0-.11.14,1.09,1.09,0,0,0-.05.25,3.57,3.57,0,0,0,0,.37,3.49,3.49,0,0,0,0,.35,1.33,1.33,0,0,0,.05.26.26.26,0,0,0,.11.14A.29.29,0,0,0,32.19,10Z" transform="translate(-0.49 -0.92)"></path><path d="M34.66,13.23v-.79l.39,0a.49.49,0,0,0,.24-.11.31.31,0,0,0,.07-.22,1.37,1.37,0,0,0,0-.3c0-.13-.07-.27-.11-.43l-1-3.6h1l.55,2.62.44-2.62h1.06l-1,4.4a1.36,1.36,0,0,1-.29.64,1,1,0,0,1-.49.33,2.32,2.32,0,0,1-.68.1Z" transform="translate(-0.49 -0.92)"></path><path d="M38,12v-6H39.1v2.1a1.77,1.77,0,0,1,.49-.35,1.47,1.47,0,0,1,.56-.11.69.69,0,0,1,.43.13.79.79,0,0,1,.24.35,1.29,1.29,0,0,1,.08.49V12H39.79V8.84a.6.6,0,0,0,0-.26.22.22,0,0,0-.21-.09.53.53,0,0,0-.2,0,.89.89,0,0,0-.23.13V12Z" transform="translate(-0.49 -0.92)"></path><path d="M42.67,12.1a.81.81,0,0,1-.52-.16.89.89,0,0,1-.33-.39,1.05,1.05,0,0,1-.11-.48,1.42,1.42,0,0,1,.15-.68,1.47,1.47,0,0,1,.41-.45,2.55,2.55,0,0,1,.56-.32c.21-.09.41-.17.62-.24V9a1.69,1.69,0,0,0,0-.25.32.32,0,0,0-.09-.15.24.24,0,0,0-.18-.06.3.3,0,0,0-.18.05.28.28,0,0,0-.09.14.64.64,0,0,0,0,.2l0,.3-1.06-.05a1.66,1.66,0,0,1,.4-1.11,1.44,1.44,0,0,1,1.08-.36,1.24,1.24,0,0,1,1,.35,1.45,1.45,0,0,1,.31,1v2c0,.17,0,.32,0,.45a1.72,1.72,0,0,0,0,.34c0,.1,0,.19,0,.26h-1c0-.1,0-.22-.06-.35s0-.21,0-.26a1.07,1.07,0,0,1-.28.48A.74.74,0,0,1,42.67,12.1Zm.4-.79a.29.29,0,0,0,.16,0,.38.38,0,0,0,.13-.09l.09-.11V9.89l-.29.19a1.5,1.5,0,0,0-.23.2,1.28,1.28,0,0,0-.15.25.94.94,0,0,0-.05.3.61.61,0,0,0,.09.35A.28.28,0,0,0,43.07,11.31Zm-.17-4,.46-1.47h1.13l-.91,1.47Z" transform="translate(-0.49 -0.92)"></path><path d="M45.3,12V11.3l1.2-2.72H45.4V7.76h2.27v.66l-1.21,2.79h1.21V12Z" transform="translate(-0.49 -0.92)"></path><path d="M48.44,7.06V6.23h1.12v.83Zm0,5V7.76h1.11V12Z" transform="translate(-0.49 -0.92)"></path></svg>